# xmcd CD database file generated by OrangeCD 5.2
#
# Track frame offsets:
#	150
#	13629
#	23705
#	36668
#	50224
#	63799
#	73525
#	81190
#	89856
#	99845
#	112093
#	123859
#	135027
#	146536
#	163364
#	173044
#
# Disc length: 2444 seconds
#
# Revision: 0
# Processed by: cddbd v1.5PL3 Copyright (c) Steve Scherf et al.
# Submitted via: OrangeCD 5.2
#
DISCID=db098a10
DTITLE=Carl Perkins - Country Soul
DYEAR=1999
DGENRE=Rock and Roll
TTITLE0=Country Soul
TTITLE1=Daddy Sang Bass
TTITLE2=Let The Jukebox Keep Playin'
TTITLE3=Every Road
TTITLE4=Georgia Court Room
TTITLE5=This Old House
TTITLE6=Glad All Over
TTITLE7=Honky Tonk Gal
TTITLE8=Maybelline
TTITLE9=Sundays Are Fun Days With My
TTITLE10=Rise And Shine
TTITLE11=Sing A Song
TTITLE12=Standing In The Need Of Love
TTITLE13=Sweeter Than Candy
TTITLE14=All Shook Up
TTITLE15=What Am I Living For
EXTD=
EXTT0=
EXTT1=
EXTT2=
EXTT3=
EXTT4=
EXTT5=
EXTT6=
EXTT7=
EXTT8=
EXTT9=
EXTT10=
EXTT11=
EXTT12=
EXTT13=
EXTT14=
EXTT15=
PLAYORDER=
